<?xml version="1.0" encoding="UTF-8"?>
<!DOCTYPE svg PUBLIC "-//W3C//DTD SVG 1.1//EN" "http://www.w3.org/Graphics/SVG/1.1/DTD/svg11.dtd">
<!-- Creator: CorelDRAW -->
<svg xmlns="http://www.w3.org/2000/svg" xml:space="preserve" width="70px" height="100px" version="1.1" style="shape-rendering:geometricPrecision; text-rendering:geometricPrecision; image-rendering:optimizeQuality; fill-rule:evenodd; clip-rule:evenodd"
viewBox="0 0 56 80"
 xmlns:xlink="http://www.w3.org/1999/xlink"
 xmlns:xodm="http://www.corel.com/coreldraw/odm/2003">
 <defs>
  <style type="text/css">
   <![CDATA[
    .fil1 {fill:none}
    .fil0 {fill:ghostwhite}
    .fil2 {fill:ghostwhite;fill-rule:nonzero}
   ]]>
  </style>
 </defs>
 <g id="Livello_x0020_1">
  <metadata id="CorelCorpID_0Corel-Layer"/>
  <path class="fil0" d="M28.59 12c-9.19,-0.25 -16.91,12.07 -17.24,27.53 -0.1,4.82 0.52,9.37 1.71,13.36 1.09,-8.55 3.07,-17.46 5.65,-24.32 0.53,-1.4 3.55,-9.21 4.46,-9.16 1.82,0.11 4.98,10.29 7.43,20.74l2.73 0c0.14,-0.26 0.32,-0.5 0.53,-0.71 0.55,-0.55 1.32,-0.9 2.16,-0.9 0.85,0 1.61,0.35 2.17,0.9 0.55,0.55 0.89,1.32 0.89,2.17 0,1.65 -0.35,3.15 -0.93,4.53 -0.57,1.33 -1.37,2.54 -2.28,3.64 -0.66,0.79 -1.38,1.52 -2.12,2.21 -0.2,0.19 -0.4,0.37 -0.61,0.56 0.04,0.23 0.08,0.45 0.12,0.68 0.17,0.15 0.33,0.3 0.49,0.45 0.74,0.69 1.46,1.42 2.12,2.21 0.91,1.1 1.71,2.3 2.28,3.64 0.22,0.51 0.4,1.04 0.55,1.59 3.49,-5.03 5.78,-12.39 5.95,-20.65 0.33,-15.46 -6.86,-28.21 -16.06,-28.47zm-8.81 37.33c-1.44,1.77 -3.01,4.55 -4.81,8.53 0.66,1.37 1.4,2.64 2.21,3.77 0.16,-0.73 0.39,-1.43 0.67,-2.1 0.58,-1.33 1.37,-2.54 2.29,-3.64 0.65,-0.79 1.37,-1.52 2.11,-2.21 0.3,-0.28 0.62,-0.57 0.94,-0.85 -0.32,-0.27 -0.64,-0.56 -0.94,-0.84 -0.74,-0.69 -1.46,-1.42 -2.11,-2.21 -0.13,-0.15 -0.25,-0.3 -0.36,-0.45zm2.25 17.01c1.68,1.02 3.48,1.6 5.38,1.66 2.22,0.06 4.36,-0.62 6.33,-1.89 -0.16,-0.18 -0.3,-0.38 -0.41,-0.59l-10.66 0c-0.14,0.26 -0.32,0.5 -0.52,0.71 -0.04,0.04 -0.08,0.07 -0.12,0.11z"/>
  <rect class="fil1" width="56" height="80"/>
  <path class="fil2" d="M36.02 40c0.89,0 1.61,0.72 1.61,1.61 0,2.89 -1.23,5.25 -2.88,7.24 -1.21,1.45 -2.7,2.76 -4.19,3.98 1.49,1.23 2.98,2.54 4.19,3.99 1.65,1.99 2.88,4.35 2.88,7.24 0,0.89 -0.72,1.61 -1.61,1.61 -0.89,0 -1.6,-0.72 -1.6,-1.61l-12.84 0c0,0.89 -0.71,1.61 -1.6,1.61 -0.89,0 -1.6,-0.72 -1.6,-1.61 0,-2.89 1.22,-5.25 2.87,-7.24 1.21,-1.45 2.7,-2.76 4.19,-3.99 -1.49,-1.22 -2.98,-2.53 -4.19,-3.98 -1.65,-1.99 -2.87,-4.35 -2.87,-7.24 0,-0.89 0.71,-1.61 1.6,-1.61 0.89,0 1.6,0.72 1.6,1.61l12.84 0c0,-0.89 0.71,-1.61 1.6,-1.61zm-3.43 19.25l-9.17 0c-0.41,0.53 -0.76,1.06 -1.03,1.61l11.24 0c-0.29,-0.55 -0.63,-1.08 -1.04,-1.61l0 0zm-2.28 -2.4c-0.72,-0.66 -1.5,-1.3 -2.31,-1.96 -0.81,0.66 -1.59,1.3 -2.31,1.96l4.62 0zm-6.9 -10.43l9.17 0c0.41,-0.53 0.76,-1.06 1.04,-1.61l-11.24 0c0.28,0.55 0.63,1.08 1.03,1.61zm2.28 2.4c0.72,0.66 1.5,1.3 2.31,1.96 0.81,-0.66 1.59,-1.3 2.31,-1.96l-4.62 0z"/>
 </g>
</svg>
